<?xml version="1.0" encoding="utf-8"?>
<svg width="144px" height="19px" viewbox="0 0 144 19" version="1.1" xmlns:xlink="http://www.w3.org/1999/xlink" xmlns="http://www.w3.org/2000/svg">
  <defs>
    <filter id="filter_1">
      <feColorMatrix in="SourceGraphic" type="matrix" values="0 0 0 0 1 0 0 0 0 1 0 0 0 0 1 0 0 0 1 0" />
    </filter>
  </defs>
  <g id="Logo" filter="url(#filter_1)">
    <path d="M51.258 4.97151C52.416 4.83847 53.7078 4.61885 55.1051 4.27066C58.2209 3.47973 59.9717 3.59691 60.8025 3.74338L61.4257 0.0816497C59.942 -0.0941131 57.7461 -0.0355255 54.5709 0.755407C51.1881 1.60493 48.6287 1.57563 47.3824 1.45846L46.4547 7.05358C47.2583 7.11438 48.9681 7.17122 50.921 6.90711L51.258 4.97151ZM39.9712 6.87781C40.3273 6.9657 40.6537 7.08287 41.0098 7.20005C42.3748 7.66875 43.3244 8.31321 43.8585 9.13344C44.3927 9.95366 44.541 10.9789 44.3037 12.2679C44.1553 13.1174 43.8585 13.9083 43.4431 14.6114C43.0277 15.3144 42.4935 15.9296 41.8407 16.4276C41.1879 16.9256 40.4163 17.3357 39.5558 17.5993C38.6952 17.863 37.716 18.0095 36.6774 18.0095C34.5112 18.0095 32.6417 17.365 31.0096 16.1054L33.5616 12.5608C34.1254 13.1467 34.7189 13.5568 35.3124 13.8497C35.9058 14.1427 36.529 14.2891 37.1522 14.2891C37.894 14.2891 38.4578 14.1134 38.8733 13.7912C39.2887 13.4689 39.5261 13.0881 39.6151 12.678C39.6448 12.4143 39.6448 12.18 39.5854 12.0042C39.5261 11.7992 39.4074 11.6234 39.2294 11.4769C39.0513 11.3305 38.8139 11.184 38.4875 11.0375C38.1611 10.9204 37.7753 10.7739 37.3302 10.5981C36.7961 10.4224 36.2619 10.2173 35.7575 10.0123C35.2233 9.8072 34.7782 9.51426 34.4221 9.16273C34.066 8.81121 33.799 8.3718 33.6209 7.81522C33.4429 7.25863 33.4429 6.58488 33.5913 5.73536C33.7396 4.88583 34.0067 4.1242 34.4221 3.45044C34.8079 2.74739 35.3124 2.1908 35.9058 1.69281C36.4993 1.19481 37.2115 0.813995 37.983 0.550351C38.7546 0.286706 39.5854 0.140237 40.5053 0.140237C41.3362 0.140237 42.1968 0.257413 43.087 0.491763C43.9476 0.726113 44.7784 1.07764 45.55 1.51705L43.176 4.94442C42.7606 4.5636 42.3155 4.27066 41.8704 4.0949C41.4253 3.88985 40.9505 3.80196 40.5053 3.80196C39.9119 3.80196 39.4371 3.94843 39.0216 4.21208C38.6062 4.47572 38.3688 4.82725 38.2798 5.26665C38.2204 5.55959 38.2798 5.79394 38.4282 5.999C38.5765 6.17476 38.7842 6.35052 39.0513 6.49699C39.3184 6.64346 39.6151 6.76064 39.9712 6.87781ZM14.5997 11.1547C14.6294 11.5941 14.5997 12.0921 14.5107 12.5901C14.3623 13.381 14.0953 14.0841 13.7095 14.6993C13.3237 15.3144 12.8489 15.8417 12.2555 16.2518C11.662 16.6619 11.0091 16.9842 10.2376 17.1892C9.46609 17.3943 8.63521 17.5115 7.7153 17.5115L0 17.5115L3.02677 0.608938L10.2376 0.608938C11.8104 0.608938 12.938 0.989758 13.6205 1.7221C14.303 2.45445 14.5107 3.53832 14.2733 4.94442C14.1249 5.79394 13.8579 6.49699 13.4424 7.05358C13.0567 7.63945 12.4929 8.10815 11.7807 8.48897C12.3742 8.60615 12.8786 8.8112 13.2941 9.04556C13.6798 9.27991 14.0062 9.60214 14.214 9.95366C14.4217 10.3052 14.5701 10.7153 14.5997 11.1547ZM29.1104 9.25061L29.882 12.9709C29.1401 12.8245 27.7454 12.7659 25.3715 13.2932C25.1044 13.3517 24.8373 13.4103 24.5406 13.4982C22.5524 14.0255 20.8313 14.2599 19.407 14.3477L17.6859 17.5701L12.938 17.5701L22.4931 0.69682L27.3597 0.69682L28.9621 8.3425C27.8048 8.3718 26.3804 8.51827 24.6 8.95767L24.0361 5.67677L21.4248 10.5688C22.2557 10.4517 23.1756 10.2759 24.1548 10.0122C24.3626 9.95366 24.5406 9.92437 24.7483 9.86578C26.5288 9.42637 27.9531 9.27991 29.1104 9.25061ZM8.24944 3.97773L6.85475 3.97773L6.29094 7.25863L7.68563 7.25863C9.08032 7.25863 9.85185 6.70205 10.0596 5.61818C10.2376 4.53431 9.64413 3.97773 8.24944 3.97773ZM6.58768 14.1134Q8.27912 14.1134 9.08032 13.674C9.61446 13.381 9.94087 12.9416 10.0892 12.3558C10.2079 11.7113 10.0596 11.2719 9.61446 10.9789C9.16934 10.686 8.39781 10.5395 7.27019 10.5395L5.69746 10.5395L5.04462 14.1134L6.58768 14.1134ZM44.6597 17.8923C45.0158 17.9216 45.4609 17.9509 45.9951 17.9509C47.7459 17.9802 50.2979 17.8337 53.3543 17.0721C56.114 16.369 57.8054 16.3983 58.7253 16.5155L59.3485 12.883C57.8945 12.7659 55.7579 12.8538 52.8498 13.5861C51.7329 13.8684 50.702 14.0524 49.7767 14.1685L50.0901 12.385C48.805 12.5553 46.3463 12.6318 45.55 12.4902L44.6597 17.8923ZM25.5199 14.2891C27.9235 13.7619 29.3478 13.8204 30.06 13.9669L30.8019 17.5701L26.054 17.5701L25.5199 14.2891Z" transform="translate(82.5043 0)" id="Combined-Shape" fill="#050D29" fill-rule="evenodd" stroke="none" />
    <path d="M0.602582 1.45347L1.03968e-13 5.0859C0.326417 5.1152 0.685298 5.14449 1.13041 5.14449C2.88119 5.17378 5.43318 5.02732 8.48962 4.26568C11.3977 3.53333 13.1188 3.59192 14.009 3.70909L14.6322 0.0766611C13.2078 -0.0991017 11.0416 -0.0112203 7.98516 0.750419C4.45393 1.62923 1.78955 1.54135 0.602582 1.45347Z" transform="translate(128.19986 6.5374756)" id="Fill-21" fill="#086FFF" fill-rule="evenodd" stroke="none" />
    <path d="M17.577 2.57786C16.8945 1.75763 16.0043 1.14246 14.9064 0.673758C13.8084 0.205057 12.5918 0 11.2268 0C9.83207 0 8.5264 0.23435 7.28008 0.673758C6.03376 1.14246 4.93582 1.75763 3.95657 2.57786C2.97732 3.39808 2.14644 4.33548 1.4936 5.41935Q0.514354 7.04516 0.158263 8.93461Q-0.197828 10.8241 0.247285 12.4499C0.514354 13.5337 1.01882 14.4711 1.70132 15.2914C2.38383 16.1116 3.27406 16.7268 4.34233 17.1955C5.4106 17.6642 6.65692 17.8692 8.05161 17.8692C9.41663 17.8692 10.752 17.6349 11.9983 17.1955C13.2446 16.7268 14.3722 16.1116 15.3515 15.2914C16.3307 14.4711 17.1616 13.5337 17.8144 12.4499Q18.7937 10.8241 19.1498 8.93461C19.3872 7.67498 19.3575 6.50323 19.0608 5.41935C18.764 4.33548 18.2892 3.39808 17.577 2.57786ZM26.9244 0.673758C28.0817 0.23435 29.2687 0 30.4557 0C31.1382 0 31.791 0.0878814 32.4142 0.23435C33.0373 0.38082 33.6902 0.61517 34.3727 0.908108L33.4231 6.1517Q32.2213 4.30619 29.9512 4.30619C29.2984 4.30619 28.6752 4.42337 28.0521 4.65772C27.4586 4.89207 26.8948 5.2143 26.42 5.62441C25.9452 6.03452 25.5297 6.53252 25.2033 7.0891C24.8769 7.67498 24.6395 8.29015 24.5208 8.93461C24.4021 9.57908 24.4021 10.2235 24.5505 10.7801C24.6692 11.3367 24.9066 11.8347 25.2627 12.2448C25.5891 12.6842 26.0342 13.0065 26.5387 13.2408C27.0431 13.4752 27.6366 13.5923 28.2895 13.5923C29.7138 13.5923 31.1085 13.0065 32.4438 11.8054L31.5239 16.9904L31.0492 17.1369C30.337 17.3712 29.6841 17.547 29.061 17.6642C28.4378 17.7813 27.8443 17.8399 27.2805 17.8399C26.1232 17.8399 25.0253 17.6056 24.0164 17.1662C23.0074 16.7268 22.1766 16.1116 21.494 15.3207C20.8115 14.5297 20.3071 13.563 20.0103 12.4792C19.6839 11.366 19.6542 10.165 19.8916 8.87602C20.0994 7.5871 20.5741 6.38605 21.2567 5.30218C21.9392 4.21831 22.7404 3.28091 23.7196 2.48997C24.6692 1.72833 25.7375 1.11316 26.9244 0.673758ZM37.8446 13.6509L46.8655 13.6509L46.2127 17.3712L32.7406 17.3712L35.7674 0.468701L49.2098 0.468701L48.557 4.18901L39.536 4.18901L39.0315 7.03051L47.7558 7.03051L47.1029 10.7508L38.3787 10.7508L37.8446 13.6509ZM61.3169 0.468701L64.8185 17.3712L60.0706 17.3712L59.5661 14.4418L53.2158 14.4418L51.6728 17.3712L46.9249 17.3712L56.4503 0.468701L61.3169 0.468701ZM77.8751 10.6044L72.6525 0.468701L68.2013 0.468701L65.2042 17.3712L69.6553 17.3712L71.4952 7.23557L76.6881 17.3712L81.1096 17.3712L84.1364 0.468701L79.7149 0.468701L77.8751 10.6044ZM13.7491 10.7801C13.393 11.3367 12.9479 11.8347 12.4434 12.2448C11.9093 12.6549 11.3455 12.9772 10.7223 13.2115C10.0991 13.4459 9.4463 13.563 8.82314 13.563C8.19998 13.563 7.57682 13.4459 7.04269 13.2115C6.50855 12.9772 6.06344 12.6549 5.67767 12.2448C5.32158 11.8347 5.05451 11.3367 4.90614 10.7801C4.75777 10.2235 4.7281 9.57908 4.84679 8.93461Q5.02484 7.92398 5.55898 7.0891C5.91507 6.53252 6.36018 6.03452 6.86464 5.62441C7.3691 5.2143 7.93292 4.89207 8.58575 4.65772C9.20891 4.42337 9.86174 4.30619 10.4849 4.30619Q11.4642 4.30619 12.2654 4.65772C12.7995 4.89207 13.2743 5.2143 13.6304 5.62441C14.0161 6.03452 14.2535 6.53252 14.4316 7.0891C14.5799 7.64568 14.6096 8.29015 14.4909 8.93461C14.3426 9.57908 14.1052 10.2235 13.7491 10.7801ZM57.9934 5.47794L54.9963 11.1024L59.0023 11.1024L57.9934 5.47794Z" transform="translate(0 0.14025879)" id="Combined-Shape" fill="#086FFF" fill-rule="evenodd" stroke="none" />
  </g>
</svg>